# xmcd
#
# Track frame offsets:
# 150
# 47697
# 83936
# 104570
# 145626
# 190711
# 211277
# 254005
# 279563
# 305852
#
# Disc length: 4592 seconds
#
#
# Revision: 0
# Processed by: cddbd v1.5.2PL0 Copyright (c) Steve Scherf et al.
# Submitted via: FreeRIP 2.96 
#
DISCID=9511ee0a
DTITLE=Amy Tan - Der Geist der Madame Chen CD5v5
DYEAR=2007
DGENRE=Hörbuch
TTITLE0=40 Die Erfindung der Nudeln
TTITLE1=41 Eine vielversprechende Spur
TTITLE2=42 Pocke hatte seinen Leuten ...
TTITLE3=43 Zeichen und Wunder
TTITLE4=44 Pocke wusste zwar ...
TTITLE5=45 Im Ort ohne Namen
TTITLE6=46 Ende gut, alles gut
TTITLE7=47 Als die Touristen ...
TTITLE8=48 Nun bin ich an der Reihe
TTITLE9=49 Vera stand auf
EXTD=gelesen von Maren Kroymann
EXTT0=
EXTT1=
EXTT2=
EXTT3=
EXTT4=
EXTT5=
EXTT6=
EXTT7=
EXTT8=
EXTT9=
PLAYORDER=
